<svg preserveAspectRatio="none" width="100%" height="100%" overflow="visible" style="display: block;" viewBox="0 0 16.5 16.2194" fill="none" xmlns="http://www.w3.org/2000/svg">
<path id="Vector" d="M6.86703 11.45C6.29294 11.4005 5.71192 11.3752 5.125 11.3752H4.5C2.42893 11.3752 0.75 9.69627 0.75 7.6252C0.75 5.55413 2.42893 3.8752 4.5 3.8752H5.125C5.71192 3.8752 6.29294 3.84992 6.86703 3.80039M6.86703 11.45C7.07774 12.2514 7.3531 13.0266 7.68719 13.7697C7.89341 14.2284 7.73685 14.7775 7.30134 15.0289L6.75441 15.3447C6.29492 15.61 5.70466 15.4424 5.48201 14.9608C4.95983 13.8313 4.55451 12.6368 4.28155 11.3927M6.86703 11.45C6.54598 10.229 6.375 8.94705 6.375 7.6252C6.375 6.30336 6.54598 5.02145 6.86703 3.80039M6.86703 11.45C9.49997 11.6772 11.987 12.4145 14.2289 13.5626M6.86703 3.80039C9.49997 3.57321 11.987 2.83589 14.2289 1.68778M14.2289 1.68778C14.1308 1.37183 14.0251 1.05923 13.912 0.750204M14.2289 1.68778C14.6747 3.12377 14.9631 4.62906 15.0738 6.18347M14.2289 13.5626C14.1308 13.8786 14.0251 14.1912 13.912 14.5002M14.2289 13.5626C14.6747 12.1266 14.9631 10.6213 15.0738 9.06694M15.0738 6.18347C15.487 6.5274 15.75 7.04559 15.75 7.6252C15.75 8.20482 15.487 8.723 15.0738 9.06694M15.0738 6.18347C15.1078 6.65963 15.125 7.1404 15.125 7.6252C15.125 8.11 15.1078 8.59078 15.0738 9.06694" stroke="var(--stroke-0, #374151)" stroke-width="1.5" stroke-linecap="round" stroke-linejoin="round"/>
</svg>
