<svg width="36" height="36" viewBox="0 0 36 36" fill="none" xmlns="http://www.w3.org/2000/svg">
<rect width="36" height="36" rx="4" fill="white"/>
<path d="M25.5 17.375V24.25C25.5 24.9404 24.9404 25.5 24.25 25.5H12.375C11.6846 25.5 11.125 24.9404 11.125 24.25V17.375M18 12.0625C18 10.8544 17.0206 9.875 15.8125 9.875C14.6044 9.875 13.625 10.8544 13.625 12.0625C13.625 13.2706 14.6044 14.25 15.8125 14.25C16.4246 14.25 18 14.25 18 14.25M18 12.0625C18 12.6585 18 14.25 18 14.25M18 12.0625C18 10.8544 18.9794 9.875 20.1875 9.875C21.3956 9.875 22.375 10.8544 22.375 12.0625C22.375 13.2706 21.3956 14.25 20.1875 14.25C19.5754 14.25 18 14.25 18 14.25M18 14.25V25.5M10.8125 17.375H25.8125C26.3303 17.375 26.75 16.9553 26.75 16.4375V15.1875C26.75 14.6697 26.3303 14.25 25.8125 14.25H10.8125C10.2947 14.25 9.875 14.6697 9.875 15.1875V16.4375C9.875 16.9553 10.2947 17.375 10.8125 17.375Z" stroke="#374151" stroke-width="1.5" stroke-linecap="round" stroke-linejoin="round"/>
</svg>
