<svg width="36" height="36" viewBox="0 0 36 36" fill="none" xmlns="http://www.w3.org/2000/svg">
<rect width="36" height="36" rx="4" fill="white"/>
<path d="M23.25 20V18.0312C23.25 16.6333 22.1167 15.5 20.7188 15.5H19.5938C19.1278 15.5 18.75 15.1222 18.75 14.6562V13.5312C18.75 12.1333 17.6167 11 16.2188 11H14.8125M14.8125 20.5625H20.4375M14.8125 22.8125H17.625M16.5 11H12.8438C12.3778 11 12 11.3778 12 11.8437V24.7812C12 25.2472 12.3778 25.625 12.8437 25.625H22.4062C22.8722 25.625 23.25 25.2472 23.25 24.7812V17.75C23.25 14.0221 20.2279 11 16.5 11Z" stroke="#374151" stroke-width="1.5" stroke-linecap="round" stroke-linejoin="round"/>
</svg>
